<?xml version="1.0" encoding="UTF-8"?>
<svg id="Layer_3" xmlns="http://www.w3.org/2000/svg" version="1.1" viewBox="0 0 300 80" width="300" height="80">
  <!-- Generator: Adobe Illustrator 29.0.0, SVG Export Plug-In . SVG Version: 2.1.0 Build 186)  -->
  <defs>
    <style>
      .st0 {
        stroke: #a0a0a0;
      }

      .st0, .st1 {
        fill: #a0a0a0;
      }

      .st0, .st1, .st2, .st3 {
        stroke-miterlimit: 10;
      }

      .st1 {
        stroke: #000;
      }

      .st2 {
        fill: #61affc;
        stroke: #61affc;
      }

      .st3 {
        fill: #83c3eb;
        stroke: #83c3eb;
      }
    </style>
  </defs>
  <path class="st1" d="M16.4,52.3"/>
  <path class="st0" d="M40.4,13c-10.2-1.1-10.3,7.4-13,22.8-.9,5.3-3.8,15.7-3.8,15.7-.8-1.2-5.1-33.6-9.8-40.1-.9-.7-8.7-.7-11.3-.3,17.8,59,21.7,83.6,36.3,23.5,3.3,1.2,1.1-16.1,1.6-21.7Z"/>
  <path class="st0" d="M-1.7-40.1"/>
  <path class="st0" d="M95.1,43.4"/>
  <path class="st0" d="M100.6,39.5c-.2,10.1-14.1,2.5-15,5.3-2.8,6.5-.2,4.9,6.9,4.8,9.3.6,20.5-3.3,15.9-14.3-7.9-11-25.9-8.1-30.7,5.3-5.2,12.4,1.4,29.2,14.7,28.8s14.9-8.6,12.6-13.1c-1.3-1.1-5.9,5-11,4.7-11,.6-12.5-14.1-5.8-21.2,4-3.7,11.4-2.8,12.4-.3Z"/>
  <path class="st2" d="M120.3,69.5c-.5,0-.5-39.4-.1-55.7,0-3.6,17.3-3.4,25.2-.9,7.9,2.5,6,17.7,2.1,19.6s-11.2,5.7-12.3,1.8-6.7-5.6-6.9-6.6c1,3.7,17.3,3.1,13.6-6.9-1.8-5-6.5-5.4-9.7-4.6-2.3.6-5.5,2.8-5.5,6.5-.3,5.8,5.9,7.9,8,11,3.3,4.9,18,33.3,16.9,35.7-1.5,0-4.8,0-10.4,0s-5.9-23.9-6.3-24.4c-.6-.7-4.9-.5-5.4-.4-.8.2-.3,5.7-.4,24.8,0,0-4.9,0-8.7,0Z"/>
  <path class="st0" d="M269.6,43"/>
  <path class="st0" d="M269.8,36.7"/>
  <path class="st0" d="M270.6,39.3"/>
  <path class="st2" d="M156.3,40c-8.5-12.2,29.4-20.7,32.2,17.4.8,10.5.6,12-.5,12-.8,0-2,0-3.1,0-.3,0,.3,0-1.7-1.7-1-.8-1.5-.7-11.6.2-23,2-18.2-22.4,2.1-19.8,2.3.5-1.7,3.4.6,3.7-17.6-3.1-8.2,12.4-.9,7.3,3.2-2.2.2-19.7-4.6-21.8-4-1.7-10.6,5.1-12.4,2.6Z"/>
  <path class="st2" d="M202.4,47.3c-8.8,6-7.3,15.9-3.8,19.4,4.4,4.6,20.6,2.3,23.1-2.3,3.4-1.8,3,3.2,3.8,4.7,4.6,1.2,5.4-1,5.2-4.6-.4-10.4,2.8-39.7.8-41.3-10.2-3.4-9,1.2-8.1,21.2,1.1,22.3-4.4-6.9-20.9,2.9-4.4,5.4,5.2,5,7.6,4.4,3.1,0,7.4,4.2,7,7.4-2.7,4.2-10.8,5-13.5,1.1-.6-1.6-.7-6.3,2.4-6.9,1.1-.5,5.9-1.9,6.8-1.1"/>
  <path class="st2" d="M241.2,68.2c-1.9-3.5-5.5-35.9,4.1-31.4,1.4.6,4.5,39.1-4.1,31.4Z"/>
  <path class="st2" d="M239.8,29.4c3.2,9.5,10.3-1.7,5.6-6-3.9-2.3-7.9,2.5-5.6,6Z"/>
  <path class="st2" d="M264.8,50.1c-11.7,9.1,16.3,16.7,11.7,2.3-3.4-10.5-15.6,1.7-22.6,2.1-.2-16.8,29.3-30.4,30.9,0,1,19.2-30.3,20-30.9.1"/>
  <path class="st3" d="M18.3,45.3"/>
  <path class="st0" d="M51.4,58.4"/>
  <path class="st0" d="M37.8,13c10.1-1.1,10.3,7.4,13,22.8.9,5.3,3.8,15.7,3.8,15.7,0,0,5.9-30.9,8.2-37.6.6-4.3,8.7-2.9,12.9-2.7-7.4,28.9-17.1,52.8-19.1,57.1-.5,1,.2-2.3,0,0-.1,1.7-5,1-5.5.4-5.8-6.2-10.6-34-11.7-34-3.3,1.1-1.1-15.9-1.6-21.7Z"/>
  <path class="st3" d="M122.4,60"/>
  <path class="st3" d="M121,27.6"/>
  <path class="st3" d="M274.9,40.4"/>
  <path class="st3" d="M122.9,28.6"/>
  <path class="st3" d="M337.7,76.5"/>
</svg>