<?xml version="1.0" encoding="UTF-8"?>
<svg xmlns="http://www.w3.org/2000/svg" version="1.1" viewBox="0 0 24 24">
  <!-- Generator: Adobe Illustrator 29.0.0, SVG Export Plug-In . SVG Version: 2.1.0 Build 186)  -->
  <defs>
    <style>
      .st0 {
        fill: #61affc;
      }

      .st0, .st1 {
        stroke-width: .5px;
      }

      .st0, .st1, .st2 {
        stroke: #565656;
        stroke-miterlimit: 10;
      }

      .st3 {
        fill: #f0f2f4;
      }

      .st1, .st2, .st4 {
        fill: #b5bdc4;
      }

      .st5 {
        fill: #5a5f65;
      }

      .st6 {
        fill: #d2d7df;
      }
    </style>
  </defs>
  <g id="Layer_2">
    <polygon class="st0" points="21.9 17.9 12 23.7 2 17.8 2.1 6.1 12 .3 22 6.2 21.9 17.9"/>
  </g>
  <g id="Layer_1">
    <path class="st2" d="M5.3,6.2"/>
    <path class="st1" d="M7.1,4.2s-.2.1-.3.2c0,.1,0,.3,0,.4s1.6,1.7,1.6,1.8,0,.8,0,.8l-.5.3h-.6s-1.7-1.9-1.7-1.9c0,0-.6,0-.7,0s-.5.6-.4.7.5,2.7.5,2.7c0,0,2.4,2.4,2.4,2.5s1.9-.3,2-.3,6.9,7.4,6.9,7.4h.9c0,0,.9-.5.9-.5l-.2-1.2-.9-1.4-5.2-6.1s-.1-3.4-.2-3.4c0,0-2-2.2-2-2.2l-1.1-.4s-1.4.6-1.5.6"/>
    <path class="st4" d="M-1.3,5.9"/>
    <path class="st3" d="M7.1,4.8s1.2-.1,1.3-.2,1.1.1,1.2.2,1,.8,1,.9.6.8.6.8c0,0,.2,2.1.2,2.2s0,1.2,0,1.2c0,0,5.3,6.1,5.3,6.2s.3.3.3.3c0,0-5.5-6.7-5.5-6.6s-.3-3.4-.2-3.3.2.1,0,0-2-2.2-2-2.2-1-.4-1.1-.4-1.4.6-1.4.6v.2s.1.2.1.2Z"/>
    <path class="st3" d="M7.2,4.7s1.2-.1,1.3-.2,1.1.1,1.2.2,1,.8,1,.9.6.8.6.8c0,0,.2,2.1.2,2.2s0,1.2,0,1.2c0,0,5.3,6.1,5.3,6.2s.3.3.3.3c0,0-5.5-6.7-5.5-6.6s-.3-3.4-.2-3.3.2.1,0,0-2-2.2-2-2.2-1-.4-1.1-.4-1.4.6-1.4.6v.2s.1.2.1.2Z"/>
    <path class="st3" d="M11.7,9.6s-.2-3-.2-3.3c0,0,0,0,0,0-.4-.4-1.9-2.1-1.9-2.1s-1-.4-1.1-.4c0,0-1.4.6-1.4.6v.2s.1.2.1.2c0,0,1.2-.1,1.3-.2s1.1.1,1.2.2c0,0,1,.8,1,.9,0,0,.6.8.6.8,0,0,.2,2.1.2,2.2,0,0,0,1.2,0,1.2,0,0,5.3,6.1,5.3,6.2s.3.3.3.3c0,0-5.5-6.7-5.5-6.6Z"/>
    <path class="st3" d="M4.9,6.1"/>
    <polyline class="st6" points="5 6 5.5 5.9 7.1 7.7 7.9 7.8 7.8 7.8 7.2 7.8 7 7.8 5.5 6.3 5 6"/>
    <path class="st6" d="M15.4,11.2"/>
    <path class="st6" d="M16.2,17.4"/>
    <path class="st3" d="M13.4,15.5"/>
    <polygon class="st5" points="16.9 17 16.8 17.6 16.3 17.7 15.9 17.2 16.1 16.6 16.6 16.6 16.9 17"/>
  </g>
</svg>