<?xml version="1.0" encoding="UTF-8"?>
<svg id="Layer_1" xmlns="http://www.w3.org/2000/svg" version="1.1" viewBox="0 0 32 32">
  <!-- Generator: Adobe Illustrator 29.0.0, SVG Export Plug-In . SVG Version: 2.1.0 Build 186)  -->
  <defs>
    <style>
      .st0 {
        stroke: #a0a0a0;
      }

      .st0, .st1 {
        fill: #a0a0a0;
      }

      .st0, .st1, .st2, .st3 {
        stroke-miterlimit: 10;
      }

      .st1 {
        stroke: #000;
      }

      .st2 {
        fill: #61affc;
        stroke: #61affc;
      }

      .st3 {
        fill: #83c3eb;
        stroke: #83c3eb;
      }
    </style>
  </defs>
  <path class="st1" d="M4.2,19.7"/>
  <path class="st0" d="M10.5,7.7c-2.6-.3-2.6,2.3-3.3,7-.2,1.6-1,4.8-1,4.8-.2-.4-1.3-10.3-2.5-12.3-.2-.2-2.2-.2-2.8,0,4.5,18.1,5.5,25.7,9.2,7.2.8.4.3-4.9.4-6.7h0Z"/>
  <path class="st3" d="M4.7,17.6"/>
  <path class="st0" d="M12.5,21.6"/>
  <path class="st0" d="M9.8,7.7c2.5-.3,2.6,2.3,3.3,7,.2,1.6,1,4.8,1,4.8,0,0,1.5-9.5,2.1-11.5.2-1.3,2.2-.9,3.3-.8-1.9,8.9-4.3,16.2-4.8,17.5-.1.3,0-.7,0,0,0,.5-1.3.3-1.4.1-1.5-1.9-2.7-10.4-3-10.4-.8.3-.3-4.9-.4-6.7Z"/>
  <path class="st2" d="M20.6,25c-.2,0-.2-12.1,0-17.1,0-1.1,5.3-1,7.7-.3,2.4.8,1.8,5.4.6,6-1.2.6-3.4,1.8-3.8.6s-2-1.7-2.1-2c.3,1.1,5.3,1,4.2-2.1-.5-1.5-2-1.7-3-1.4-.7.2-1.7.9-1.7,2,0,1.8,1.8,2.4,2.4,3.4,1,1.5,5.5,10.2,5.2,11h-3.2c-1.7,0-1.8-7.3-1.9-7.5-.2-.2-1.5-.2-1.6-.1-.2,0,0,1.8-.1,7.6h-2.7Z"/>
</svg>